<?xml version="1.0" encoding="iso-8859-1"?>
<svg id="Layer_1" data-name="Layer 1" xmlns="http://www.w3.org/2000/svg" viewBox="0 0 90 90"><defs><style>.cls-1{fill:#d62300;}.cls-2{fill:#ff8533;}</style></defs><title>BK_logo_web</title><path class="cls-1" d="M75.94,48.86a11,11,0,0,0-6.59-1.81c-5.42,0-10.71,3.42-10.71,11.38,0,7.61,5.29,11.17,10.5,11.17,5.47,0,8.94-3.37,8.94-8.31,0-3.12-2-5.28-5.89-5.28H71.05c-2,0-3.63,1-3.63,3.05a2.9,2.9,0,0,0,3,2.81c1.1,0,1.54.19,1.54.68s-.58,1-2,1c-2.63,0-4.43-1.79-4.43-5.12,0-3.7,2.45-5,4.33-5,2.31,0,2.68,1.16,4.29,1.16a3.08,3.08,0,0,0,3.11-3A3.18,3.18,0,0,0,75.94,48.86Z"/><path class="cls-1" d="M56.83,51v14.5c0,2.31-1.35,4.15-3.8,4.15-1.42,0-2.74-.56-4-3l-3.23-6.26c-.23-.44-.4-.56-.63-.56s-.49.23-.49.77l0,5.07c0,2.19-1.25,3.94-3.6,3.94s-3.59-1.75-3.59-3.94V51.19c0-2.3,1.35-4.14,3.8-4.14,1.46,0,2.74.56,4,3l3.23,6.27c.23.44.4.55.63.55s.49-.23.49-.76l0-5.08c0-2.19,1.25-3.93,3.6-3.93S56.83,48.79,56.83,51Z"/><path class="cls-1" d="M13.21,65.51v-3.7c0-.33.14-.56.46-.56s.54.44.66.65c.72,1.44,1.93,4.4,3.37,6a4.81,4.81,0,0,0,3.47,1.75,4.07,4.07,0,0,0,4-3.91,4.71,4.71,0,0,0-1.56-3.31,43.53,43.53,0,0,1-3.4-4.14,1.19,1.19,0,0,1-.23-.63c0-.26.14-.44.42-.7a21.13,21.13,0,0,0,3.14-3.49,5.21,5.21,0,0,0,.95-2.79,3.78,3.78,0,0,0-3.84-3.61,3.9,3.9,0,0,0-3.3,2.05c-1.09,1.77-2.21,4.26-3.14,5.19-.24.23-.35.28-.54.28s-.44-.21-.44-.54V51.17c0-2.28-1.35-4.12-3.79-4.12s-3.8,1.84-3.8,4.12V65.51c0,2.28,1.33,4.12,3.8,4.12S13.21,67.79,13.21,65.51Z"/><path class="cls-2" d="M76.15,72c1.35,0,1.95.65,1.95,1.79,0,2-1.84,4.79-5.47,6.84C66.58,84,56.2,85,41.84,85S17.1,84,11,80.61c-3.63-2-5.46-4.84-5.46-6.84,0-1.14.6-1.79,2-1.79Z"/><path class="cls-2" d="M76.15,27.54H7.53a1.72,1.72,0,0,1-1.95-1.95C5.58,18.14,16.77,5,41.84,5,66.67,5,78.1,18.14,78.1,25.59A1.72,1.72,0,0,1,76.15,27.54Z"/><path class="cls-1" d="M41.26,41.65a10.1,10.1,0,0,1-1.56-2.4.48.48,0,0,1,.16-.58,4.62,4.62,0,0,0,1.56-3.59c0-3.18-2.44-4.79-5.4-4.79H33.39a2.41,2.41,0,0,0-2.72,2.51V43.18a2.31,2.31,0,1,0,4.6,0v-2.3c0-.35.14-.6.52-.6s.46.27.53.6a9.62,9.62,0,0,0,1.14,3.45,2.82,2.82,0,0,0,2.28,1.37A2.23,2.23,0,0,0,42,43.56,3,3,0,0,0,41.26,41.65Zm-31-2.49h.66a1.47,1.47,0,0,1,0,2.93h-.66a.51.51,0,0,1-.58-.53V39.69A.51.51,0,0,1,10.25,39.16Zm0-2.75a.51.51,0,0,1-.58-.53V34.29a.51.51,0,0,1,.58-.53h.54A1.16,1.16,0,0,1,12,35.08a1.17,1.17,0,0,1-1.21,1.33ZM8.3,45.58h3.28c3.1,0,5-2.07,5-4.65a3.85,3.85,0,0,0-1.51-3.15c-.12-.09-.23-.18-.23-.27s0-.17.18-.31a3.66,3.66,0,0,0,1-2.63c0-2.79-2-4.28-4.93-4.28H8.3A2.41,2.41,0,0,0,5.58,32.8V43.07A2.41,2.41,0,0,0,8.3,45.58Zm27.63-8.4h-.56a.51.51,0,0,1-.58-.54v-2c0-.3.18-.49.58-.49h.56a1.36,1.36,0,0,1,1.49,1.49A1.42,1.42,0,0,1,35.93,37.18ZM60.72,41a.51.51,0,0,0,.58.54h2.25a2,2,0,1,1,0,4H59.11a2.41,2.41,0,0,1-2.72-2.51V32.8a2.41,2.41,0,0,1,2.72-2.51h4.44a2,2,0,1,1,0,4H61.3a.52.52,0,0,0-.58.54v.67a.51.51,0,0,0,.58.54h1.6a1.86,1.86,0,1,1,0,3.72H61.3a.52.52,0,0,0-.58.54ZM72,37.18h-.56a.51.51,0,0,1-.58-.54v-2c0-.3.18-.49.58-.49H72a1.36,1.36,0,0,1,1.49,1.49A1.42,1.42,0,0,1,72,37.18ZM53.76,31.29a7.63,7.63,0,0,0-4.4-1.14c-3.61,0-7.13,2.37-7.13,7.87,0,5.26,3.52,7.7,7,7.7,3.65,0,6-2.33,6-5.82,0-2.16-1.31-3.65-3.91-3.65h-.75c-1.37,0-2.44.65-2.44,2.12a2,2,0,0,0,2.09,1.93c.61,0,1,.28,1,.7s-.49.93-1.38.93c-1.81,0-2.93-1.4-2.93-3.91s1.63-3.49,2.89-3.49c1.53,0,1.79.58,2.86.58A2.09,2.09,0,0,0,54.64,33,2.06,2.06,0,0,0,53.76,31.29Zm13,11.89a2.31,2.31,0,1,0,4.61,0v-2.3c0-.35.14-.6.51-.6s.46.27.53.6a9.25,9.25,0,0,0,1.14,3.45,2.82,2.82,0,0,0,2.28,1.37,2.23,2.23,0,0,0,2.26-2.14,3,3,0,0,0-.74-1.91,10.1,10.1,0,0,1-1.56-2.4.48.48,0,0,1,.16-.58,4.62,4.62,0,0,0,1.56-3.59c0-3.18-2.44-4.79-5.4-4.79H69.49a2.41,2.41,0,0,0-2.72,2.51ZM23.4,45.7c-3.77,0-5.74-2.26-5.74-5.1V32.76a2.32,2.32,0,1,1,4.63,0v7.58a1.1,1.1,0,0,0,1.11,1.22,1.14,1.14,0,0,0,1.17-1.22V32.76a2.31,2.31,0,1,1,4.61,0V40.6C29.18,43.44,27.17,45.7,23.4,45.7Z"/><path class="cls-1" d="M34.83,51.45c0-2.45-1.42-4.4-4-4.4s-4,2-4,4.4V65.23c0,2.44,1.42,4.4,4,4.4s4-2,4-4.4Z"/><path class="cls-1" d="M78.82,80a2.8,2.8,0,0,1,5.6,0,2.8,2.8,0,1,1-5.6,0Zm5,0a2.19,2.19,0,1,0-2.19,2.25A2.17,2.17,0,0,0,83.81,80Zm-3.16,1.2V78.8a.32.32,0,0,1,.29-.31h.8a1,1,0,0,1,1.06.9.89.89,0,0,1-.82.92l.63.7a.3.3,0,0,1,.1.19.28.28,0,0,1-.53.15l-.84-1h-.1v.82a.3.3,0,0,1-.59,0Zm1-1.35c.34,0,.53-.17.53-.4s-.17-.38-.47-.38h-.48v.78Z"/></svg>